<?xml version="1.0" encoding="UTF-8" standalone="no"?>
<!-- Created with Inkscape (http://www.inkscape.org/) -->

<svg
        width="105.83334mm"
        height="105.83334mm"
        viewBox="0 0 105.83333 105.83333"
        version="1.1"
        id="svg5"
        xml:space="preserve"
        sodipodi:docname="drawing.svg"
        inkscape:version="1.2.1 (9c6d41e4, 2022-07-14)"
        xmlns:inkscape="http://www.inkscape.org/namespaces/inkscape"
        xmlns:sodipodi="http://sodipodi.sourceforge.net/DTD/sodipodi-0.dtd"
        xmlns="http://www.w3.org/2000/svg"
><sodipodi:namedview
     id="namedview7"
     pagecolor="#ffffff"
     bordercolor="#000000"
     borderopacity="0.25"
     inkscape:showpageshadow="2"
     inkscape:pageopacity="0.0"
     inkscape:pagecheckerboard="0"
     inkscape:deskcolor="#d1d1d1"
     inkscape:document-units="mm"
     showgrid="false"
     inkscape:zoom="0.29229923"
     inkscape:cx="251.45465"
     inkscape:cy="210.40083"
     inkscape:window-width="1430"
     inkscape:window-height="793"
     inkscape:window-x="0"
     inkscape:window-y="25"
     inkscape:window-maximized="0"
     inkscape:current-layer="svg5"><inkscape:grid
       type="xygrid"
       id="grid2681"
       originx="-77.19953"
       originy="-53.228981" /></sodipodi:namedview><defs
     id="defs2" /><g
     id="g2664"
     transform="matrix(1.9017113,0,0,1.9891942,-194.52679,-158.22766)"><path
       style="fill:#40bf40;fill-opacity:1;stroke-width:0.218501"
       d="m 130.25558,79.543596 27.68644,18.35846 -27.68644,19.405584 -27.68644,-18.88203 z"
       id="rect396"
       sodipodi:nodetypes="ccccc" /><path
       style="fill:#c87137;stroke-width:0.218501"
       d="m 157.94202,97.902056 v 14.749874 l -27.68644,20.09579 v -15.44008 z"
       id="rect396-2"
       sodipodi:nodetypes="ccccc" /><path
       style="fill:#71db71;fill-opacity:1;stroke-width:0.184395"
       d="m 157.94202,97.902056 v 5.143524 l -27.68644,18.96356 v -4.7015 z"
       id="rect396-2-1"
       sodipodi:nodetypes="ccccc" /><path
       style="fill:#502d16;stroke-width:0.218501"
       d="m 102.56914,98.42561 -0.27875,14.86556 27.96519,19.45655 v -15.44008 z"
       id="rect396-2-3"
       sodipodi:nodetypes="ccccc" /><g
       id="g86"
       transform="matrix(0.04831197,0,0,-0.03294928,108.05904,113.56342)"
       style="fill:#003300;fill-opacity:1;image-rendering:auto"><path
         d="M 901.547,500.352 500.355,901.527 c -23.093,23.11 -60.566,23.11 -83.691,0 L 333.363,818.211 439.039,712.535 c 24.559,8.293 52.723,2.727 72.293,-16.847 19.688,-19.696 25.207,-48.102 16.699,-72.75 L 629.887,521.094 c 24.648,8.496 53.066,3.004 72.754,-16.711 27.5,-27.492 27.5,-72.059 0,-99.574 -27.52,-27.516 -72.078,-27.516 -99.61,0 -20.683,20.703 -25.801,51.097 -15.312,76.582 l -95,94.992 V 326.414 c 6.699,-3.32 13.027,-7.742 18.613,-13.312 27.5,-27.497 27.5,-72.059 0,-99.598 -27.5,-27.488 -72.09,-27.488 -99.57,0 -27.5,27.539 -27.5,72.101 0,99.598 6.797,6.789 14.668,11.925 23.066,15.363 v 252.281 c -8.398,3.438 -16.25,8.531 -23.066,15.367 -20.828,20.821 -25.84,51.395 -15.157,76.977 L 292.426,777.285 17.3281,502.211 c -23.10544,-23.129 -23.10544,-60.602 0,-83.711 L 418.539,17.3242 c 23.098,-23.10545 60.559,-23.10545 83.691,0 L 901.547,416.641 c 23.117,23.113 23.117,60.605 0,83.711"
         style="fill:#003300;fill-opacity:1;fill-rule:nonzero;stroke:none"
         id="path88" /></g><path
       style="fill:#277227;fill-opacity:1;stroke-width:0.184395"
       d="m 102.56914,98.42561 0.0771,4.96119 27.68644,18.96357 -0.0771,-5.04273 z"
       id="rect396-2-1-4"
       sodipodi:nodetypes="ccccc" /></g></svg>
